<?xml version="1.0" encoding="UTF-8" standalone="no"?>
<!-- Created with Inkscape (http://www.inkscape.org/) -->

<svg
   xmlns:dc="http://purl.org/dc/elements/1.1/"
   xmlns:cc="http://creativecommons.org/ns#"
   xmlns:rdf="http://www.w3.org/1999/02/22-rdf-syntax-ns#"
   xmlns:svg="http://www.w3.org/2000/svg"
   xmlns="http://www.w3.org/2000/svg"
   xmlns:sodipodi="http://sodipodi.sourceforge.net/DTD/sodipodi-0.dtd"
   xmlns:inkscape="http://www.inkscape.org/namespaces/inkscape"
   id="svg2"
   sodipodi:docname="stop.svg"
   viewBox="0 0 269.97 269.97"
   version="1.1"
   inkscape:version="0.92.2 5c3e80d, 2017-08-06">
  <defs
     id="defs18" />
  <title
     id="title3906">Stop Sign</title>
  <sodipodi:namedview
     id="base"
     fit-margin-left="0.1"
     inkscape:zoom="2.2304168"
     borderopacity="1.0"
     inkscape:current-layer="layer1"
     inkscape:cx="134.98542"
     inkscape:cy="134.98543"
     inkscape:window-maximized="1"
     showgrid="false"
     fit-margin-right="0.1"
     units="in"
     inkscape:document-units="in"
     bordercolor="#666666"
     inkscape:window-x="1680"
     inkscape:window-y="1"
     fit-margin-bottom="0.1"
     inkscape:window-width="1920"
     inkscape:pageopacity="0.0"
     inkscape:pageshadow="2"
     pagecolor="#ffffff"
     inkscape:window-height="1035"
     fit-margin-top="0.1" />
  <g
     id="layer1"
     inkscape:label="Layer 1"
     inkscape:groupmode="layer"
     transform="translate(-360.01 -534.88)">
    <g
       id="g3031">
      <flowRoot
         id="flowRoot2982"
         style="line-height:0.01%;font-family:'Standard Symbols L';letter-spacing:0px;word-spacing:0px;fill:#000000"
         xml:space="preserve"
         transform="translate(0,287.36)"><flowRegion
           id="flowRegion2984"><rect
             id="rect2986"
             y="142.92999"
             x="246.38"
             width="405.64001"
             height="415.17001" /></flowRegion><flowPara
           id="flowPara2988"
           style="font-size:102.59999847px;line-height:1.25">SS.O.P.A.Sto</flowPara></flowRoot>      <path
         id="path3030"
         style="fill:#e80808"
         sodipodi:type="star"
         d="m 443.3607,420.6989 -82.75679,63.50152 -103.42024,-13.61554 -63.50152,-82.75679 13.61554,-103.42024 82.75679,-63.50152 103.42024,13.61554 63.50151,82.75679 z"
         sodipodi:r1="136.29105"
         inkscape:flatsided="true"
         transform="matrix(.99127 -.13184 .13184 .99127 126.03 363.28)"
         sodipodi:arg2="0.91629786"
         sodipodi:arg1="0.52359878"
         inkscape:randomized="0"
         sodipodi:cy="352.55338"
         sodipodi:cx="325.32919"
         inkscape:rounded="0"
         sodipodi:r2="125.9165"
         sodipodi:sides="8" />
      <path
         id="path3038"
         style="fill:#ffffff"
         sodipodi:type="inkscape:offset"
         d="m291.31 225.59-79.812 61.25-13.125 99.719 61.25 79.844 99.719 13.094 79.844-61.25 13.094-99.719-61.25-79.812-99.719-13.125z"
         inkscape:original="M 290.0625 220.90625 L 207.3125 284.40625 L 193.6875 387.8125 L 257.1875 470.59375 L 360.59375 484.1875 L 443.375 420.6875 L 456.96875 317.28125 L 393.46875 234.53125 L 290.0625 220.90625 z "
         transform="matrix(.99127 -.13184 .13184 .99127 126.02 363.27)"
         inkscape:radius="-4.4900055" />
      <path
         id="path3042"
         style="fill:#e80808"
         sodipodi:type="inkscape:offset"
         d="m292.44 229.84-77.125 59.188-12.688 96.406 59.188 77.156 96.406 12.656 77.156-59.188 12.656-96.406-59.188-77.125-96.406-12.688z"
         inkscape:original="M 290.0625 220.90625 L 207.3125 284.40625 L 193.6875 387.8125 L 257.1875 470.59375 L 360.59375 484.1875 L 443.375 420.6875 L 456.96875 317.28125 L 393.46875 234.53125 L 290.0625 220.90625 z "
         transform="matrix(.99127 -.13184 .13184 .99127 126.02 363.27)"
         inkscape:radius="-8.5289392" />
      <g
         id="flowRoot3004"
         style="fill:#ffffff"
         transform="translate(205.57 421.94)">
        <path
           id="path3028"
           style=""
           d="m345.84 207.37h21.242c5.7446 0.00008 10.153 0.45097 13.226 1.3527 3.1061 0.90185 5.4273 2.2044 6.9637 3.9077 1.5697 1.7034 2.6218 3.7742 3.1562 6.2122 0.56774 2.4048 0.85163 6.1455 0.85168 11.222v7.0639c-0.00005 5.1769-0.53443 8.951-1.6032 11.322-1.0688 2.3714-3.0394 4.1916-5.9116 5.4608-2.839 1.2692-6.563 1.9038-11.172 1.9038h-5.6612v32.664h-21.092v-81.11m21.092 13.877v20.641c0.60116 0.0334 1.1188 0.0502 1.5531 0.0501 1.9371 0.00005 3.2731-0.46754 4.0079-1.4028 0.76815-0.96853 1.1522-2.9558 1.1523-5.9618v-6.6631c-0.00003-2.7721-0.43422-4.5756-1.3026-5.4107-0.86841-0.83492-2.672-1.2524-5.4107-1.2525m-29.007 33.616c-0.00005 8.1494-0.20045 13.927-0.60118 17.334-0.36745 3.3733-1.5698 6.4628-3.6071 9.2683-2.004 2.8055-4.726 4.9598-8.1661 6.4627-3.4402 1.503-7.448 2.2544-12.024 2.2544-4.3419 0-8.2496-0.70139-11.723-2.1042-3.4401-1.4362-6.2123-3.5737-8.3164-6.4126-2.1042-2.8389-3.3566-5.9283-3.7574-9.2683-0.4008-3.3399-0.60119-9.1848-0.60119-17.535v-13.877c0-8.1494 0.18369-13.911 0.55109-17.284 0.40078-3.4066 1.6032-6.5128 3.6071-9.3184 2.0373-2.8055 4.7761-4.9597 8.2162-6.4627 3.4401-1.5029 7.448-2.2544 12.024-2.2544 4.3419 0.00009 8.2329 0.71817 11.673 2.1542 3.4735 1.4028 6.2623 3.5237 8.3665 6.3625 2.1041 2.839 3.3566 5.9284 3.7574 9.2683 0.40073 3.34 0.60113 9.1848 0.60118 17.535v13.877m-21.092-26.653c-0.00003-3.774-0.21712-6.1788-0.65128-7.2142-0.40082-1.0687-1.2525-1.6031-2.555-1.6032-1.1022 0.00007-1.9539 0.43426-2.555 1.3026-0.56781 0.83505-0.85171 3.34-0.85168 7.5148v37.875c-0.00003 4.7093 0.18367 7.615 0.55109 8.7172 0.40076 1.1022 1.3025 1.6533 2.7053 1.6533 1.4361 0.00001 2.3546-0.63457 2.7554-1.9038 0.40076-1.2692 0.60115-4.2918 0.60118-9.0679v-37.273m-31.913-20.841v16.232h-12.525v64.878h-21.092v-64.878h-12.475v-16.232h46.091m-50.9 24.548h-19.589v-6.0118c-0.00003-2.8055-0.25052-4.5923-0.75148-5.3606-0.50101-0.76811-1.336-1.1522-2.5049-1.1523-1.2692 0.00007-2.2378 0.51776-2.9057 1.5531-0.63461 1.0354-0.9519 2.6052-0.95188 4.7093-0.00002 2.7054 0.36737 4.7427 1.1022 6.112 0.70136 1.3694 2.6886 3.0227 5.9618 4.9598 9.3851 5.5777 15.297 10.153 17.735 13.727 2.4381 3.5738 3.6572 9.3351 3.6572 17.284-0.00005 5.7781-0.68473 10.036-2.054 12.775-1.336 2.7387-3.9412 5.0433-7.8154 6.9136-3.8743 1.837-8.3832 2.7554-13.527 2.7554-5.6445 0-10.471-1.0688-14.479-3.2063-3.9745-2.1376-6.5796-4.8596-7.8154-8.1661s-1.8537-7.9991-1.8537-14.078v-5.3105h19.589v9.8695c-0.00003 3.0393 0.26717 4.9932 0.80158 5.8616 0.56776 0.86839 1.553 1.3026 2.9558 1.3026 1.4027 0.00001 2.4381-0.55108 3.1061-1.6533 0.70135-1.1022 1.052-2.7387 1.0521-4.9097-0.00003-4.7761-0.65131-7.8989-1.9538-9.3685-1.336-1.4695-4.6258-3.9244-9.8695-7.3645-5.2437-3.4735-8.7172-5.9951-10.421-7.5649-1.7034-1.5697-3.1228-3.7407-4.2584-6.5128-1.1022-2.7721-1.6533-6.3124-1.6533-10.621 0-6.2122 0.78488-10.754 2.3546-13.627 1.6032-2.8723 4.1749-5.11 7.7152-6.7132 3.5403-1.6365 7.8154-2.4548 12.825-2.4548 5.4774 0.00009 10.137 0.88516 13.978 2.6552 3.8743 1.7702 6.4293 4.008 7.6651 6.7132 1.2691 2.672 1.9037 7.231 1.9038 13.677v3.2063" />
      </g>
    </g>
  </g>
  <metadata
     id="metadata15">
    <rdf:RDF>
      <cc:Work>
        <dc:format>image/svg+xml</dc:format>
        <dc:type
           rdf:resource="http://purl.org/dc/dcmitype/StillImage" />
        <cc:license
           rdf:resource="http://creativecommons.org/licenses/publicdomain/" />
        <dc:publisher>
          <cc:Agent
             rdf:about="http://openclipart.org/">
            <dc:title>Openclipart</dc:title>
          </cc:Agent>
        </dc:publisher>
        <dc:title>Stop Sign</dc:title>
        <dc:date>2012-01-15T16:38:46</dc:date>
        <dc:description>Stop Sign</dc:description>
        <dc:source>https://openclipart.org/detail/167093/stop-sign-by-davidblyons</dc:source>
        <dc:creator>
          <cc:Agent>
            <dc:title>davidblyons</dc:title>
          </cc:Agent>
        </dc:creator>
        <dc:subject>
          <rdf:Bag>
            <rdf:li>Stop Sign</rdf:li>
          </rdf:Bag>
        </dc:subject>
      </cc:Work>
      <cc:License
         rdf:about="http://creativecommons.org/licenses/publicdomain/">
        <cc:permits
           rdf:resource="http://creativecommons.org/ns#Reproduction" />
        <cc:permits
           rdf:resource="http://creativecommons.org/ns#Distribution" />
        <cc:permits
           rdf:resource="http://creativecommons.org/ns#DerivativeWorks" />
      </cc:License>
    </rdf:RDF>
  </metadata>
</svg>
